<?xml version="1.0" standalone="no"?>
<!DOCTYPE svg PUBLIC "-//W3C//DTD SVG 20010904//EN"
 "http://www.w3.org/TR/2001/REC-SVG-20010904/DTD/svg10.dtd">
<svg version="1.0" xmlns="http://www.w3.org/2000/svg"
 width="1000.000000pt" height="1000.000000pt" viewBox="0 0 1000.000000 1000.000000"
 preserveAspectRatio="xMidYMid meet">
<metadata>
Created by potrace 1.14, written by Peter Selinger 2001-2017
</metadata>
<g transform="translate(0.000000,1000.000000) scale(0.100000,-0.100000)"
fill="#000000" stroke="none">
<path d="M1429 8560 c-2 -9 -11 -2103 -23 -5352 l-1 -417 701 -700 700 -701
2897 0 2897 0 0 2901 0 2901 -687 687 -686 686 -2899 0 c-1594 0 -2899 -2
-2899 -5z m5596 -202 c6 -4 10 -210 10 -585 l0 -578 -2052 -3 -2051 -2 -586
586 c-322 322 -586 586 -586 587 0 6 5256 1 5265 -5z m750 -627 c294 -294 535
-536 535 -538 0 -2 -242 -2 -537 -1 l-538 3 0 537 c0 295 1 536 2 535 2 -1
244 -242 538 -536z m-5560 -110 l585 -585 0 -2030 0 -2031 -595 0 c-522 0
-595 2 -596 15 -2 29 1 1244 7 2715 3 814 6 1710 7 1992 1 281 3 511 4 510 2
-1 266 -265 588 -586z m4820 -2638 c0 -1328 -3 -2003 -10 -2004 -5 -1 -913 -2
-2017 -3 l-2008 -1 0 2008 0 2007 2017 -2 2018 -3 0 -2002z m1365 -618 c0
-1444 -2 -2625 -5 -2625 -2 0 -264 260 -582 578 l-578 579 1 2044 c1 1124 2
2045 3 2047 0 1 262 2 581 2 l580 0 0 -2625z m-5600 -2137 l0 -547 -543 542
c-299 298 -542 544 -541 547 1 3 246 5 543 5 l541 0 0 -547z m4315 502 c46
-45 1126 -1127 1134 -1135 2 -3 -1178 -5 -2622 -5 l-2627 0 0 588 c0 324 2
591 4 593 3 2 918 4 2035 4 l2030 0 46 -45z"/>
</g>
</svg>
